<?xml version="1.0" standalone="no"?>
<!DOCTYPE svg PUBLIC "-//W3C//DTD SVG 20010904//EN"
 "http://www.w3.org/TR/2001/REC-SVG-20010904/DTD/svg10.dtd">
<svg version="1.0" xmlns="http://www.w3.org/2000/svg"
 width="645.000000pt" height="318.000000pt" viewBox="0 0 645.000000 318.000000"
 preserveAspectRatio="xMidYMid meet">
<metadata>
Created by potrace 1.16, written by Peter Selinger 2001-2019
</metadata>
<g transform="translate(0.000000,318.000000) scale(0.100000,-0.100000)"
fill="#000000" stroke="none">
<path d="M935 2528 c-30 -16 -45 -39 -45 -70 0 -20 5 -28 18 -28 12 0 13 -3 5
-8 -9 -6 -7 -15 7 -37 11 -17 20 -38 20 -47 0 -16 11 -18 100 -18 87 0 101 2
106 18 3 9 17 38 30 63 30 58 30 71 1 105 -17 19 -33 27 -61 28 l-39 1 -16
-70 c-9 -38 -19 -65 -23 -60 -3 6 -12 38 -18 73 -12 57 -15 62 -39 62 -14 0
-35 -6 -46 -12z"/>
<path d="M3903 2384 c-55 -27 -63 -60 -63 -263 0 -134 4 -191 14 -216 34 -81
169 -89 216 -13 18 30 20 51 20 226 0 217 -6 243 -65 268 -44 18 -82 17 -122
-2z m111 -66 c13 -18 16 -56 16 -204 l0 -183 -26 -20 c-34 -27 -50 -26 -79 4
-25 24 -25 26 -25 202 0 204 6 223 65 223 24 0 39 -7 49 -22z"/>
<path d="M1952 2118 l3 -273 50 -3 c82 -5 135 7 167 38 27 27 28 33 28 123 0
80 -3 98 -20 120 -23 29 -74 47 -132 47 l-38 0 0 85 0 85 85 0 c84 0 85 0 85
25 l0 25 -115 0 -115 0 2 -272z m172 -24 c12 -11 16 -35 16 -86 0 -90 -13
-108 -82 -108 l-48 0 0 105 0 105 49 0 c32 0 55 -6 65 -16z"/>
<path d="M2270 2114 l0 -275 28 3 27 3 3 247 2 247 78 3 c71 3 77 5 80 26 3
22 2 22 -107 22 l-111 0 0 -276z"/>
<path d="M2530 2365 c0 -23 3 -25 50 -25 l50 0 2 -247 3 -248 28 -3 27 -3 0
250 0 251 50 0 c47 0 50 2 50 25 l0 25 -130 0 -130 0 0 -25z"/>
<path d="M2823 2383 c3 -5 32 -96 66 -202 59 -192 59 -195 44 -233 -12 -30
-23 -40 -44 -45 -24 -5 -29 -10 -29 -35 0 -29 1 -30 38 -23 42 8 75 35 91 73
6 15 36 119 66 232 31 113 59 213 61 223 5 16 1 18 -27 15 l-33 -3 -37 -148
c-20 -82 -40 -151 -43 -154 -3 -4 -9 7 -12 23 -3 16 -22 85 -43 154 l-36 125
-34 3 c-18 2 -31 0 -28 -5z"/>
<path d="M3540 2114 l0 -277 83 5 c127 8 154 28 164 123 8 74 -4 123 -35 152
-18 17 -23 27 -14 30 38 14 55 123 28 188 -20 46 -42 55 -140 55 l-86 0 0
-276z m160 206 c15 -15 20 -33 20 -70 0 -64 -23 -90 -80 -90 l-40 0 0 90 0 90
40 0 c27 0 47 -7 60 -20z m9 -234 c12 -12 16 -35 16 -87 0 -83 -13 -99 -82
-99 l-43 0 0 106 0 107 46 -6 c25 -2 53 -12 63 -21z"/>
<path d="M4152 2118 l3 -273 110 0 110 0 0 25 c0 24 -2 25 -83 28 l-83 3 3 97
3 97 65 5 c57 4 65 8 65 25 0 18 -8 20 -67 23 l-68 3 0 94 0 94 83 3 c76 3 82
5 85 26 3 22 2 22 -112 22 l-116 0 2 -272z"/>
<path d="M4440 2115 l0 -275 25 0 24 0 3 123 3 122 67 3 67 3 3 -123 3 -123
25 0 25 0 3 273 2 272 -30 0 -30 0 0 -120 0 -120 -70 0 -70 0 0 120 0 120 -25
0 -25 0 0 -275z"/>
<path d="M4755 2377 c-3 -7 -4 -129 -3 -272 l3 -260 25 0 25 0 5 200 5 200 39
-190 c22 -104 44 -196 49 -202 15 -21 47 -15 56 10 4 12 23 99 41 192 18 94
37 174 41 180 5 5 9 -79 9 -193 l0 -202 25 0 25 0 0 275 0 275 -39 0 c-47 0
-39 21 -87 -222 -20 -104 -40 -188 -43 -188 -4 0 -24 84 -44 188 -50 244 -41
222 -88 222 -23 0 -42 -5 -44 -13z"/>
<path d="M5170 2115 l0 -275 110 0 110 0 0 30 0 30 -80 0 -81 0 3 98 3 97 63
3 c58 3 62 4 62 27 0 24 -3 25 -65 25 l-65 0 0 95 0 95 80 0 c79 0 80 0 80 25
l0 25 -110 0 -110 0 0 -275z"/>
<path d="M5450 2386 c0 -2 22 -62 50 -131 l49 -127 -49 -126 c-61 -159 -61
-157 -30 -157 23 0 29 11 69 113 25 62 48 109 52 105 4 -5 26 -56 49 -115 40
-103 43 -108 71 -108 16 0 29 4 29 8 0 5 -22 66 -50 136 -27 70 -50 135 -50
144 0 9 20 68 45 131 25 63 45 118 45 123 0 5 -12 8 -27 6 -25 -3 -31 -13 -63
-95 -19 -50 -39 -92 -45 -94 -5 -1 -26 40 -46 92 -34 89 -38 94 -68 97 -17 2
-31 1 -31 -2z"/>
<path d="M3322 2308 c-5 -7 -19 -53 -30 -103 l-21 -90 23 -95 c23 -95 44 -126
67 -103 8 8 5 35 -12 107 l-23 96 22 84 c12 46 22 91 22 100 0 19 -33 22 -48
4z"/>
<path d="M3433 2308 c-6 -7 -20 -53 -31 -103 l-22 -90 24 -95 c23 -93 44 -126
66 -104 7 7 3 41 -12 107 l-22 97 22 91 c12 50 20 95 17 100 -9 13 -31 11 -42
-3z"/>
<path d="M5788 2315 c-3 -3 5 -48 18 -100 l24 -95 -24 -97 c-19 -74 -22 -99
-13 -105 28 -18 42 -1 64 77 27 102 27 142 0 240 -18 63 -27 81 -43 83 -11 2
-22 0 -26 -3z"/>
<path d="M5897 2312 c-3 -4 5 -50 18 -101 l23 -93 -23 -96 c-24 -98 -22 -117
11 -110 14 2 24 26 43 106 l25 103 -25 97 c-21 81 -29 98 -46 100 -12 2 -24
-1 -26 -6z"/>
<path d="M801 2284 c-77 -18 -141 -81 -141 -139 0 -31 6 -47 25 -65 20 -19 27
-21 40 -10 17 14 91 8 125 -10 33 -18 23 -130 -12 -130 -6 0 -33 20 -59 45
-36 33 -56 45 -79 45 -17 0 -48 9 -70 20 -51 26 -79 25 -120 -3 -48 -32 -67
-71 -91 -183 -11 -55 -29 -114 -40 -132 -24 -42 -24 -44 6 -36 l25 6 0 -164
c0 -132 4 -180 20 -242 11 -43 23 -115 26 -160 11 -131 33 -176 138 -282 72
-73 107 -100 165 -128 107 -51 203 -70 320 -63 171 10 311 76 429 202 87 92
109 144 126 295 8 69 19 139 26 155 8 19 13 91 14 205 l1 175 27 -3 28 -3 -20
34 c-11 19 -29 75 -40 126 -34 159 -64 205 -144 218 -24 4 -44 0 -61 -11 -14
-9 -49 -21 -78 -26 -43 -8 -58 -17 -89 -52 -31 -36 -40 -41 -55 -32 -29 17
-40 77 -20 108 20 31 94 45 135 26 24 -10 29 -9 49 15 34 39 23 97 -27 149
-44 44 -90 57 -217 60 l-83 2 21 -22 20 -21 -26 -17 c-28 -18 -33 -36 -10 -36
21 0 19 -3 -17 -41 -21 -24 -33 -30 -36 -20 -2 7 -13 21 -23 29 -24 20 -24 30
-2 34 15 3 13 7 -10 29 -25 23 -26 27 -13 39 9 7 16 15 16 19 0 12 -143 8
-199 -5z m159 -12 c0 -5 -12 -13 -27 -19 l-28 -11 26 -1 c14 -1 34 -8 45 -16
18 -14 17 -14 -14 -15 l-32 0 39 -35 c29 -26 44 -51 57 -95 l18 -60 23 62 c14
41 35 75 57 96 l36 32 -33 0 c-30 1 -31 1 -13 15 11 8 31 15 45 16 l26 1 -27
11 c-68 27 1 33 127 12 39 -7 75 -29 75 -46 0 -5 -24 -8 -54 -6 -52 2 -77 -6
-63 -19 4 -4 13 -1 22 6 18 15 27 8 32 -20 3 -22 -7 -26 -25 -8 -6 6 -15 9
-19 5 -3 -4 2 -13 13 -21 16 -13 23 -11 55 15 40 32 69 38 69 14 0 -8 -7 -15
-16 -15 -9 0 -29 -9 -45 -21 -16 -11 -37 -18 -45 -15 -8 3 -30 0 -48 -8 -32
-13 -34 -18 -41 -74 -7 -65 -2 -97 23 -124 26 -30 -10 -23 -39 8 -25 26 -32
86 -16 132 6 17 5 22 -7 22 -9 0 -16 5 -16 11 0 5 -4 7 -10 4 -15 -9 -12 -43
3 -47 11 -2 11 -14 0 -66 -13 -54 -17 -61 -30 -51 -11 9 -14 28 -11 70 4 68
-7 69 -17 2 -15 -104 -40 -104 -60 -1 l-13 63 -1 -62 c-1 -55 -13 -85 -27 -70
-3 3 -12 27 -19 54 l-13 48 -1 -37 c-1 -27 -10 -47 -30 -70 -35 -39 -47 -34
-25 11 13 25 15 47 9 98 -7 65 -7 66 -46 81 -37 14 -38 16 -23 34 10 10 12 18
6 18 -6 0 -14 -4 -17 -10 -12 -19 -26 -10 -19 13 9 30 9 30 33 17 12 -6 21 -7
21 -2 0 14 -35 21 -80 15 -25 -4 -40 -2 -40 5 0 17 42 42 70 42 14 0 32 5 40
10 18 12 120 13 120 2z m-342 -256 c15 -7 47 -17 71 -21 34 -6 54 -18 87 -51
23 -24 49 -44 58 -44 23 0 23 -165 0 -199 -22 -31 -37 -14 -44 52 l-6 52 -15
-35 c-18 -39 -46 -67 -57 -56 -4 4 -9 33 -12 64 l-5 57 -18 -51 c-17 -51 -51
-93 -63 -81 -4 3 -9 39 -12 78 l-5 72 -18 -49 c-20 -52 -44 -82 -56 -70 -5 4
-7 35 -7 68 l1 60 -29 -54 c-29 -53 -64 -96 -72 -87 -6 5 39 203 55 241 14 34
62 68 97 68 13 0 35 -6 50 -14z m967 -19 c18 -18 38 -51 43 -73 33 -135 47
-204 42 -204 -12 0 -48 44 -74 90 l-26 45 0 -57 c0 -31 -4 -59 -9 -62 -12 -8
-37 23 -60 74 l-20 45 0 -72 c-1 -108 -32 -109 -71 -3 -17 48 -19 51 -20 24 0
-43 -20 -96 -34 -91 -6 1 -21 23 -33 48 -22 44 -22 44 -23 13 0 -37 -19 -94
-30 -94 -20 0 -40 72 -40 144 0 70 2 76 21 76 11 0 38 19 60 44 33 36 49 45
87 51 25 4 55 13 66 21 36 25 84 18 121 -19z m-365 -294 c0 -159 -2 -189 -17
-205 -9 -10 -24 -18 -35 -18 -10 0 -17 -4 -16 -9 2 -5 -10 -23 -26 -42 l-30
-33 -10 23 c-7 16 -6 28 3 43 11 18 10 19 -11 13 -13 -4 -24 -8 -24 -9 -1 0 2
-23 6 -51 8 -49 -1 -69 -25 -61 -12 3 -12 73 -1 98 6 13 1 18 -27 23 -19 4
-43 5 -54 2 -10 -3 -4 -5 15 -6 30 -1 32 -3 32 -36 0 -19 -3 -35 -8 -35 -9 0
-62 59 -59 66 1 3 -12 12 -29 19 -25 10 -32 20 -37 51 -9 50 -9 317 -1 338 5
14 31 16 180 16 l174 0 0 -187z m-740 -213 c0 -137 -3 -250 -7 -250 -5 0 -16
33 -26 73 -24 101 -25 382 0 409 9 10 20 18 25 18 4 0 8 -112 8 -250z m1166
224 c15 -22 16 -46 11 -189 -5 -154 -30 -300 -46 -278 -10 13 -1 493 9 493 5
0 17 -12 26 -26z m-917 -19 c21 6 21 3 21 -129 0 -75 -4 -136 -9 -136 -5 0
-20 15 -35 34 -25 33 -26 41 -26 148 1 99 2 111 15 95 9 -13 20 -17 34 -12z
m-25 -250 c32 -41 50 -74 51 -96 3 -36 -9 -59 -30 -59 -12 0 -135 153 -135
167 0 10 44 51 55 51 6 1 32 -28 59 -63z m702 -29 c3 -7 -12 -40 -32 -72 -48
-74 -53 -133 -14 -147 36 -13 108 17 91 37 -10 12 -7 18 18 30 47 25 54 21 46
-21 -9 -48 -15 -57 -28 -44 -8 8 -17 4 -32 -14 -53 -67 -156 -58 -197 18 -8
17 -7 17 12 7 27 -14 30 -12 23 21 -4 22 -9 25 -34 21 -40 -6 -37 13 9 43 20
13 55 50 77 80 41 57 52 65 61 41z m-538 -88 c9 -9 12 -9 12 0 0 15 46 16 56
1 4 -8 9 -8 17 0 15 15 150 14 166 -1 11 -10 14 -10 18 0 3 6 15 12 28 12 13
0 25 -6 28 -12 4 -10 7 -10 18 0 14 13 49 17 49 4 0 -28 -30 -32 -220 -32
-190 0 -220 4 -220 32 0 12 35 9 48 -4z m-182 -56 c41 -33 57 -95 32 -120 -7
-7 -25 -12 -40 -12 -30 0 -38 -14 -12 -24 61 -23 143 19 189 99 l27 45 162 0
163 0 11 -24 c17 -38 79 -102 111 -116 43 -17 94 -9 106 17 10 24 31 37 46 27
17 -10 9 -45 -16 -69 -19 -20 -34 -25 -73 -25 -67 0 -128 34 -176 98 l-39 52
-138 0 -138 0 -15 -27 c-21 -40 -75 -90 -118 -107 -84 -35 -168 -8 -168 54 0
34 17 50 53 50 24 0 28 4 25 22 -4 31 -43 49 -77 37 -128 -49 -113 -217 32
-362 134 -134 324 -195 505 -163 128 22 219 70 311 164 88 88 113 133 119 214
3 46 0 65 -17 93 -35 60 -25 86 17 43 116 -125 -14 -384 -250 -496 -101 -49
-161 -62 -281 -62 -167 0 -298 54 -424 174 -125 118 -169 250 -116 352 38 75
136 109 189 66z m-28 -59 c2 -8 -6 -13 -22 -13 -34 0 -60 -39 -51 -79 9 -43
38 -64 98 -69 70 -5 147 34 197 101 l35 47 130 0 131 0 17 -29 c26 -44 92 -99
134 -110 99 -28 172 3 173 72 0 16 5 37 11 48 10 20 11 20 24 2 21 -27 18
-120 -5 -171 -31 -68 -142 -172 -230 -215 -80 -40 -186 -67 -260 -67 -246 0
-503 196 -504 383 -1 54 2 61 32 89 35 30 81 36 90 11z"/>
<path d="M884 1871 c-2 -2 -4 -81 -4 -176 0 -123 4 -176 13 -189 11 -15 31
-17 147 -17 122 0 137 2 151 20 21 26 27 349 7 356 -18 5 -308 11 -314 6z"/>
<path d="M1947 1663 c-4 -3 -7 -96 -7 -205 l0 -199 26 3 c24 3 29 14 72 146
25 78 50 142 54 142 4 0 8 -66 8 -146 0 -133 1 -145 18 -142 15 3 17 21 17
203 l0 200 -25 0 c-23 0 -28 -10 -70 -132 -25 -72 -48 -135 -52 -139 -5 -4 -8
56 -8 134 0 112 -3 142 -13 142 -8 0 -17 -3 -20 -7z"/>
<path d="M2187 1663 c-4 -3 -7 -96 -7 -205 0 -191 1 -198 20 -198 19 0 20 7
20 135 0 74 4 135 8 135 5 0 14 -30 21 -67 31 -173 41 -203 66 -203 21 0 24 8
45 117 33 173 39 176 39 20 1 -138 1 -138 24 -135 22 3 22 3 22 203 l0 200
-32 3 c-35 4 -28 23 -68 -188 -19 -101 -25 -123 -31 -117 -3 3 -18 69 -35 147
-16 78 -32 146 -35 151 -6 11 -48 12 -57 2z"/>
<path d="M2726 1618 c-3 -29 -8 -106 -11 -171 -6 -129 -10 -147 -31 -147 -10
0 -14 -14 -14 -50 0 -43 3 -50 19 -50 14 0 21 8 23 28 3 27 3 27 83 27 80 0
80 0 83 -27 2 -20 9 -28 23 -28 16 0 19 7 19 50 0 38 -4 50 -15 50 -13 0 -15
27 -15 185 l0 185 -79 0 -80 0 -5 -52z m122 -155 l2 -163 -49 0 -50 0 5 83
c11 189 14 229 20 238 3 6 20 9 37 7 l32 -3 3 -162z"/>
<path d="M3178 1648 c-2 -18 -12 -24 -41 -29 -21 -3 -48 -16 -60 -28 -20 -19
-22 -32 -22 -131 0 -127 11 -147 84 -157 31 -4 41 -10 41 -24 0 -12 7 -19 20
-19 13 0 20 7 20 20 0 15 7 20 24 20 82 0 110 50 104 183 -5 102 -20 125 -87
134 -35 5 -41 9 -41 29 0 32 -37 34 -42 2z m-3 -188 c0 -110 -1 -115 -21 -118
-42 -6 -54 22 -54 123 0 100 9 118 55 112 19 -2 20 -9 20 -117z m106 110 c17
-9 19 -22 19 -105 0 -102 -10 -125 -56 -125 l-24 0 0 120 c0 115 1 120 21 120
11 0 29 -5 40 -10z"/>
<path d="M3571 1653 c0 -10 19 -79 43 -153 47 -148 47 -182 0 -200 -34 -13
-31 -40 4 -40 48 0 66 33 116 211 25 91 46 173 46 182 0 10 -8 17 -20 17 -20
0 -25 -11 -56 -145 -9 -38 -20 -73 -23 -77 -4 -5 -22 44 -40 107 -27 94 -37
115 -52 115 -12 0 -19 -7 -18 -17z"/>
<path d="M3845 1645 c-24 -23 -25 -28 -25 -174 0 -89 5 -160 11 -174 19 -42
78 -59 122 -35 36 19 46 40 47 96 0 46 -3 53 -17 50 -13 -2 -19 -15 -21 -43
-4 -41 -25 -75 -49 -75 -7 0 -22 9 -33 20 -18 18 -20 33 -20 148 0 140 10 172
55 172 28 0 37 -12 45 -60 3 -22 12 -36 23 -38 14 -3 17 4 17 43 0 62 -32 95
-90 95 -30 0 -47 -6 -65 -25z"/>
<path d="M4037 1663 c-18 -17 -4 -32 31 -35 l37 -3 3 -182 c2 -174 3 -183 22
-183 19 0 20 9 22 183 l3 182 38 3 c29 3 37 7 37 23 0 17 -8 19 -93 19 -52 0
-97 -3 -100 -7z"/>
<path d="M4270 1466 l0 -206 23 0 c20 0 27 16 72 153 l50 152 3 -152 c2 -145
4 -153 22 -153 19 0 20 8 20 206 l0 205 -27 -3 c-25 -3 -30 -13 -74 -143 l-47
-140 -4 140 c-3 124 -5 140 -20 143 -17 3 -18 -12 -18 -202z"/>
<path d="M4510 1465 c0 -198 1 -205 20 -205 19 0 20 7 20 91 l0 90 53 -3 52
-3 3 -87 c3 -80 5 -88 22 -88 19 0 20 8 20 205 0 198 -1 205 -20 205 -18 0
-20 -7 -20 -82 0 -46 -4 -89 -9 -96 -5 -9 -24 -12 -52 -10 l-44 3 -3 93 c-2
84 -4 92 -22 92 -19 0 -20 -8 -20 -205z"/>
<path d="M4787 1659 c-34 -20 -47 -72 -47 -191 0 -139 11 -183 50 -203 35 -18
64 -19 93 -3 43 23 46 36 47 201 0 155 -1 158 -25 182 -26 27 -84 34 -118 14z
m87 -45 c13 -12 16 -41 16 -150 0 -121 -2 -136 -20 -154 -24 -24 -38 -25 -62
-3 -16 14 -18 33 -18 150 0 74 5 143 10 154 13 23 53 25 74 3z"/>
<path d="M4980 1466 l0 -206 64 0 c79 0 93 5 111 41 27 52 16 136 -22 164 -12
9 -11 14 6 29 28 26 29 113 2 147 -16 19 -30 24 -90 27 l-71 4 0 -206z"/>
<path d="M5275 1658 c-2 -7 -18 -89 -35 -183 -18 -93 -34 -180 -37 -192 -4
-18 -1 -23 16 -23 14 0 22 8 27 28 11 51 12 52 63 52 47 0 51 -2 57 -27 10
-49 13 -53 34 -53 19 0 20 4 14 38 -4 20 -21 111 -38 202 l-32 165 -32 3 c-20
2 -34 -2 -37 -10z"/>
<path d="M1946 1054 c-12 -12 -16 -37 -16 -109 0 -101 10 -125 54 -125 44 0
56 28 56 127 0 74 -3 93 -18 106 -23 21 -56 22 -76 1z"/>
<path d="M2205 1057 c-10 -24 -1 -232 10 -232 6 0 11 24 13 53 3 50 4 52 33
52 29 0 29 -1 29 -55 0 -43 3 -55 15 -55 13 0 15 18 13 123 -2 75 -7 121 -13
120 -5 -2 -11 -25 -13 -53 -3 -48 -4 -50 -33 -50 -28 0 -29 1 -29 49 0 48 -15
76 -25 48z"/>
<path d="M2366 1054 c-12 -12 -16 -37 -16 -109 0 -102 10 -125 55 -125 40 0
55 35 55 125 0 57 -5 87 -16 103 -18 26 -56 29 -78 6z"/>
<path d="M2490 945 l0 -125 35 0 c64 0 97 65 60 117 -10 14 -12 24 -5 28 5 3
10 24 10 45 0 44 -18 60 -69 60 l-31 0 0 -125z"/>
<path d="M2665 1058 c-5 -14 -45 -218 -45 -230 0 -19 20 -5 26 17 5 21 12 25
40 25 27 0 34 -4 34 -19 0 -19 17 -38 25 -29 3 2 -5 58 -18 124 -18 94 -26
119 -40 122 -9 2 -19 -2 -22 -10z"/>
<path d="M2775 1057 c-11 -28 0 -230 13 -235 9 -3 12 12 12 52 0 55 0 56 29
56 29 0 30 -2 33 -50 2 -28 8 -50 13 -50 6 0 10 45 10 115 0 70 -4 115 -10
115 -5 0 -11 -22 -13 -50 -3 -48 -4 -50 -33 -50 -28 0 -29 1 -29 49 0 48 -15
76 -25 48z"/>
<path d="M2974 1057 c-2 -7 -3 -62 -2 -123 l3 -109 32 -3 c54 -5 73 12 73 66
0 27 -5 53 -11 59 -8 8 -8 13 0 17 6 4 11 25 11 46 0 29 -5 42 -19 50 -28 14
-81 13 -87 -3z"/>
<path d="M3308 1059 c-28 -16 -26 -124 2 -139 14 -8 26 -8 40 0 18 10 20 8 20
-23 0 -20 -7 -40 -16 -48 -14 -11 -19 -10 -34 9 -22 27 -30 28 -30 4 0 -26 20
-42 51 -42 44 0 59 32 59 125 0 57 -5 87 -16 103 -16 23 -48 28 -76 11z"/>
</g>
</svg>
